<svg width="255" height="66" viewBox="0 0 255 66" fill="none" xmlns="http://www.w3.org/2000/svg">
<path d="M12.1745 54L1.30946 14.78H7.05996L16.176 48.8325L25.6895 14.78H32.129L41.51 49.0445L50.8115 14.78H56.191L45.3525 54H38.065L28.843 20.9015L19.462 54H12.1745ZM61.6504 54V14.78H86.9314V19.4175H67.2154V31.581H84.3079V36.2185H67.2154V49.3625H87.1964V54H61.6504ZM95.5799 54.371C94.4492 54.371 93.5306 54.053 92.8239 53.417C92.1349 52.7633 91.7904 51.88 91.7904 50.767C91.7904 49.654 92.1261 48.7707 92.7974 48.117C93.4864 47.4633 94.4139 47.1365 95.5799 47.1365C96.7459 47.1365 97.6646 47.4722 98.3359 48.1435C99.0249 48.8148 99.3694 49.6893 99.3694 50.767C99.3694 51.8623 99.0249 52.7368 98.3359 53.3905C97.6469 54.0442 96.7282 54.371 95.5799 54.371Z" fill="#77A6FF"/>
<path d="M106.372 54V14.78H113.129L125.982 42.7905L138.622 14.78H145.38V54H140.106V22.677L128.314 48.488H123.438L111.645 23.1275V54H106.372ZM169.253 54.5035C165.861 54.5035 162.893 53.8057 160.349 52.41C157.805 50.9967 155.826 48.806 154.413 45.838C153.017 42.87 152.319 39.054 152.319 34.39C152.319 29.726 153.026 25.91 154.439 22.942C155.853 19.974 157.822 17.7922 160.349 16.3965C162.893 14.9832 165.861 14.2765 169.253 14.2765C172.662 14.2765 175.639 14.9832 178.183 16.3965C180.727 17.8098 182.697 20.0005 184.093 22.9685C185.506 25.9188 186.213 29.726 186.213 34.39C186.213 39.054 185.506 42.87 184.093 45.838C182.679 48.7883 180.701 50.9702 178.157 52.3835C175.613 53.7968 172.645 54.5035 169.253 54.5035ZM169.253 49.813C171.532 49.813 173.502 49.3183 175.162 48.329C176.841 47.322 178.13 45.7055 179.031 43.4795C179.95 41.2358 180.409 38.259 180.409 34.549C180.409 30.7153 179.95 27.6678 179.031 25.4065C178.13 23.1275 176.841 21.4845 175.162 20.4775C173.484 19.4705 171.514 18.967 169.253 18.967C166.991 18.967 165.022 19.4617 163.343 20.451C161.683 21.4403 160.393 23.0568 159.474 25.3005C158.556 27.5265 158.096 30.5033 158.096 34.231C158.096 38.0647 158.556 41.121 159.474 43.4C160.393 45.679 161.683 47.322 163.343 48.329C165.022 49.3183 166.991 49.813 169.253 49.813ZM193.012 54V15.4955C194.584 15.1775 196.289 14.9125 198.126 14.7005C199.981 14.4708 201.942 14.356 204.009 14.356C209.327 14.356 213.293 15.3188 215.908 17.2445C218.54 19.1702 219.856 22.1823 219.856 26.281C219.856 29.2313 219.079 31.6517 217.524 33.542C215.97 35.4323 213.717 36.7662 210.767 37.5435L222.957 54H216.65L205.149 38.312C204.654 38.3473 204.133 38.365 203.585 38.365C202.596 38.365 201.713 38.3473 200.935 38.312C200.158 38.2767 199.363 38.2237 198.55 38.153V54H193.012ZM203.665 33.9925C207.445 33.9925 210.201 33.3742 211.933 32.1375C213.664 30.9008 214.53 28.9575 214.53 26.3075C214.53 23.6045 213.726 21.6612 212.118 20.4775C210.511 19.2762 207.967 18.6755 204.486 18.6755C203.267 18.6755 202.198 18.7197 201.28 18.808C200.361 18.8963 199.451 19.02 198.55 19.179V33.754C199.487 33.8423 200.317 33.9042 201.041 33.9395C201.783 33.9748 202.658 33.9925 203.665 33.9925ZM235.148 54V36.8545L220.891 14.78H226.986L238.063 31.9785L248.981 14.78H254.678L240.766 36.828V54H235.148Z" fill="#4B5364"/>
</svg>
