<svg width="244" height="66" viewBox="0 0 244 66" fill="none" xmlns="http://www.w3.org/2000/svg">
<path d="M13.1363 54L1.87382 14.78H5.18632L15.3888 51.032L25.8298 14.78H29.7253L40.1663 51.1115L50.4483 14.78H53.5488L42.3128 54H38.0993L27.7643 18.2515L17.3498 54H13.1363ZM59.9159 54V14.78H83.3154V17.5625H63.0429V32.4555H80.7449V35.238H63.0429V51.2175H83.5804V54H59.9159ZM91.2277 54.2915C90.521 54.2915 89.938 54.0883 89.4787 53.682C89.037 53.258 88.8162 52.6838 88.8162 51.9595C88.8162 51.2352 89.037 50.661 89.4787 50.237C89.9204 49.7953 90.5034 49.5745 91.2277 49.5745C91.952 49.5745 92.535 49.7953 92.9767 50.237C93.4184 50.6787 93.6392 51.2528 93.6392 51.9595C93.6392 52.6662 93.4184 53.2315 92.9767 53.6555C92.535 54.0795 91.952 54.2915 91.2277 54.2915Z" fill="#77A6FF"/>
<path d="M101.842 54V14.78H105.526L119.968 45.467L134.278 14.78H137.988V54H134.967V19.868L121.426 48.6205H118.378L104.837 20.1065V54H101.842ZM161.454 54.477C158.31 54.477 155.554 53.7968 153.186 52.4365C150.837 51.0762 149.008 48.9208 147.701 45.9705C146.394 43.0202 145.74 39.16 145.74 34.39C145.74 29.62 146.394 25.7598 147.701 22.8095C149.026 19.8592 150.863 17.7038 153.213 16.3435C155.58 14.9832 158.327 14.303 161.454 14.303C164.581 14.303 167.32 14.9832 169.669 16.3435C172.037 17.7038 173.874 19.868 175.181 22.836C176.489 25.7863 177.142 29.6377 177.142 34.39C177.142 39.1423 176.48 43.0025 175.155 45.9705C173.848 48.9208 172.01 51.0762 169.643 52.4365C167.293 53.7968 164.564 54.477 161.454 54.477ZM161.454 51.668C163.928 51.668 166.092 51.1203 167.947 50.025C169.802 48.9297 171.242 47.1277 172.266 44.619C173.309 42.1103 173.83 38.7448 173.83 34.5225C173.83 30.1942 173.309 26.7668 172.266 24.2405C171.242 21.6965 169.802 19.8768 167.947 18.7815C166.092 17.6685 163.928 17.112 161.454 17.112C158.963 17.112 156.79 17.6597 154.935 18.755C153.08 19.8503 151.632 21.6523 150.589 24.161C149.565 26.652 149.052 30.0175 149.052 34.2575C149.052 38.5858 149.565 42.022 150.589 44.566C151.632 47.0923 153.08 48.912 154.935 50.025C156.79 51.1203 158.963 51.668 161.454 51.668ZM184.807 54V15.363C186.221 15.098 187.731 14.8683 189.339 14.674C190.964 14.4797 192.775 14.3825 194.771 14.3825C199.806 14.3825 203.543 15.3012 205.981 17.1385C208.437 18.9758 209.664 21.8467 209.664 25.751C209.664 31.899 206.264 35.6002 199.462 36.8545L212.659 54H208.896L196.123 37.252C195.346 37.305 194.542 37.3315 193.711 37.3315C192.528 37.3315 191.494 37.3138 190.611 37.2785C189.745 37.2255 188.853 37.1637 187.934 37.093V54H184.807ZM193.685 34.655C198.243 34.655 201.529 33.9307 203.543 32.482C205.575 31.0157 206.59 28.7897 206.59 25.804C206.59 22.6947 205.672 20.4598 203.834 19.0995C201.997 17.7392 199.011 17.059 194.877 17.059C193.429 17.059 192.174 17.112 191.114 17.218C190.072 17.324 189.012 17.4653 187.934 17.642V34.39C189.012 34.4783 189.948 34.549 190.743 34.602C191.556 34.6373 192.537 34.655 193.685 34.655ZM225.982 54V36.3245L211.672 14.78H215.276L227.625 33.436L239.815 14.78H243.207L229.162 36.298V54H225.982Z" fill="#4B5364"/>
</svg>
