<svg width="current" height="current" viewBox="0 0 258 83" fill="none" xmlns="http://www.w3.org/2000/svg">
<ellipse cx="228" cy="28" rx="30" ry="28" fill="#DBE7FF"/>
<path d="M13.1363 71L1.87382 31.78H5.18632L15.3888 68.032L25.8298 31.78H29.7253L40.1663 68.1115L50.4483 31.78H53.5488L42.3128 71H38.0993L27.7643 35.2515L17.3498 71H13.1363ZM59.9159 71V31.78H83.3154V34.5625H63.0429V49.4555H80.7449V52.238H63.0429V68.2175H83.5804V71H59.9159ZM91.2277 71.2915C90.521 71.2915 89.938 71.0883 89.4787 70.682C89.037 70.258 88.8162 69.6838 88.8162 68.9595C88.8162 68.2352 89.037 67.661 89.4787 67.237C89.9204 66.7953 90.5034 66.5745 91.2277 66.5745C91.952 66.5745 92.535 66.7953 92.9767 67.237C93.4184 67.6787 93.6392 68.2528 93.6392 68.9595C93.6392 69.6662 93.4184 70.2315 92.9767 70.6555C92.535 71.0795 91.952 71.2915 91.2277 71.2915Z" fill="#77A6FF"/>
<path d="M101.842 71V31.78H105.526L119.968 62.467L134.278 31.78H137.988V71H134.967V36.868L121.426 65.6205H118.378L104.837 37.1065V71H101.842ZM161.454 71.477C158.31 71.477 155.554 70.7968 153.186 69.4365C150.837 68.0762 149.008 65.9208 147.701 62.9705C146.394 60.0202 145.74 56.16 145.74 51.39C145.74 46.62 146.394 42.7598 147.701 39.8095C149.026 36.8592 150.863 34.7038 153.213 33.3435C155.58 31.9832 158.327 31.303 161.454 31.303C164.581 31.303 167.32 31.9832 169.669 33.3435C172.037 34.7038 173.874 36.868 175.181 39.836C176.489 42.7863 177.142 46.6377 177.142 51.39C177.142 56.1423 176.48 60.0025 175.155 62.9705C173.848 65.9208 172.01 68.0762 169.643 69.4365C167.293 70.7968 164.564 71.477 161.454 71.477ZM161.454 68.668C163.928 68.668 166.092 68.1203 167.947 67.025C169.802 65.9297 171.242 64.1277 172.266 61.619C173.309 59.1103 173.83 55.7448 173.83 51.5225C173.83 47.1942 173.309 43.7668 172.266 41.2405C171.242 38.6965 169.802 36.8768 167.947 35.7815C166.092 34.6685 163.928 34.112 161.454 34.112C158.963 34.112 156.79 34.6597 154.935 35.755C153.08 36.8503 151.632 38.6523 150.589 41.161C149.565 43.652 149.052 47.0175 149.052 51.2575C149.052 55.5858 149.565 59.022 150.589 61.566C151.632 64.0923 153.08 65.912 154.935 67.025C156.79 68.1203 158.963 68.668 161.454 68.668ZM184.807 71V32.363C186.221 32.098 187.731 31.8683 189.339 31.674C190.964 31.4797 192.775 31.3825 194.771 31.3825C199.806 31.3825 203.543 32.3012 205.981 34.1385C208.437 35.9758 209.664 38.8467 209.664 42.751C209.664 48.899 206.264 52.6002 199.462 53.8545L212.659 71H208.896L196.123 54.252C195.346 54.305 194.542 54.3315 193.711 54.3315C192.528 54.3315 191.494 54.3138 190.611 54.2785C189.745 54.2255 188.853 54.1637 187.934 54.093V71H184.807ZM193.685 51.655C198.243 51.655 201.529 50.9307 203.543 49.482C205.575 48.0157 206.59 45.7897 206.59 42.804C206.59 39.6947 205.672 37.4598 203.834 36.0995C201.997 34.7392 199.011 34.059 194.877 34.059C193.429 34.059 192.174 34.112 191.114 34.218C190.072 34.324 189.012 34.4653 187.934 34.642V51.39C189.012 51.4783 189.948 51.549 190.743 51.602C191.556 51.6373 192.537 51.655 193.685 51.655ZM225.982 71V53.3245L211.672 31.78H215.276L227.625 50.436L239.815 31.78H243.207L229.162 53.298V71H225.982Z" fill="#4B5364"/>
</svg>
