<svg width="268" height="84" viewBox="0 0 268 84" fill="none" xmlns="http://www.w3.org/2000/svg">
<ellipse cx="238" cy="28" rx="30" ry="28" fill="#DBE7FF"/>
<path d="M12.1745 72L1.30946 32.78H7.05996L16.176 66.8325L25.6895 32.78H32.129L41.51 67.0445L50.8115 32.78H56.191L45.3525 72H38.065L28.843 38.9015L19.462 72H12.1745ZM61.6504 72V32.78H86.9314V37.4175H67.2154V49.581H84.3079V54.2185H67.2154V67.3625H87.1964V72H61.6504ZM95.5799 72.371C94.4492 72.371 93.5306 72.053 92.8239 71.417C92.1349 70.7633 91.7904 69.88 91.7904 68.767C91.7904 67.654 92.1261 66.7707 92.7974 66.117C93.4864 65.4633 94.4139 65.1365 95.5799 65.1365C96.7459 65.1365 97.6646 65.4722 98.3359 66.1435C99.0249 66.8148 99.3694 67.6893 99.3694 68.767C99.3694 69.8623 99.0249 70.7368 98.3359 71.3905C97.6469 72.0442 96.7282 72.371 95.5799 72.371Z" fill="#77A6FF"/>
<path d="M106.372 72V32.78H113.129L125.982 60.7905L138.622 32.78H145.38V72H140.106V40.677L128.314 66.488H123.438L111.645 41.1275V72H106.372ZM169.253 72.5035C165.861 72.5035 162.893 71.8057 160.349 70.41C157.805 68.9967 155.826 66.806 154.413 63.838C153.017 60.87 152.319 57.054 152.319 52.39C152.319 47.726 153.026 43.91 154.439 40.942C155.853 37.974 157.822 35.7922 160.349 34.3965C162.893 32.9832 165.861 32.2765 169.253 32.2765C172.662 32.2765 175.639 32.9832 178.183 34.3965C180.727 35.8098 182.697 38.0005 184.093 40.9685C185.506 43.9188 186.213 47.726 186.213 52.39C186.213 57.054 185.506 60.87 184.093 63.838C182.679 66.7883 180.701 68.9702 178.157 70.3835C175.613 71.7968 172.645 72.5035 169.253 72.5035ZM169.253 67.813C171.532 67.813 173.502 67.3183 175.162 66.329C176.841 65.322 178.13 63.7055 179.031 61.4795C179.95 59.2358 180.409 56.259 180.409 52.549C180.409 48.7153 179.95 45.6678 179.031 43.4065C178.13 41.1275 176.841 39.4845 175.162 38.4775C173.484 37.4705 171.514 36.967 169.253 36.967C166.991 36.967 165.022 37.4617 163.343 38.451C161.683 39.4403 160.393 41.0568 159.474 43.3005C158.556 45.5265 158.096 48.5033 158.096 52.231C158.096 56.0647 158.556 59.121 159.474 61.4C160.393 63.679 161.683 65.322 163.343 66.329C165.022 67.3183 166.991 67.813 169.253 67.813ZM193.012 72V33.4955C194.584 33.1775 196.289 32.9125 198.126 32.7005C199.981 32.4708 201.942 32.356 204.009 32.356C209.327 32.356 213.293 33.3188 215.908 35.2445C218.54 37.1702 219.856 40.1823 219.856 44.281C219.856 47.2313 219.079 49.6517 217.524 51.542C215.97 53.4323 213.717 54.7662 210.767 55.5435L222.957 72H216.65L205.149 56.312C204.654 56.3473 204.133 56.365 203.585 56.365C202.596 56.365 201.713 56.3473 200.935 56.312C200.158 56.2767 199.363 56.2237 198.55 56.153V72H193.012ZM203.665 51.9925C207.445 51.9925 210.201 51.3742 211.933 50.1375C213.664 48.9008 214.53 46.9575 214.53 44.3075C214.53 41.6045 213.726 39.6612 212.118 38.4775C210.511 37.2762 207.967 36.6755 204.486 36.6755C203.267 36.6755 202.198 36.7197 201.28 36.808C200.361 36.8963 199.451 37.02 198.55 37.179V51.754C199.487 51.8423 200.317 51.9042 201.041 51.9395C201.783 51.9748 202.658 51.9925 203.665 51.9925ZM235.148 72V54.8545L220.891 32.78H226.986L238.063 49.9785L248.981 32.78H254.678L240.766 54.828V72H235.148Z" fill="#4B5364"/>
</svg>
