<svg width="current" height="current" viewBox="0 0 22 21" fill="none" xmlns="http://www.w3.org/2000/svg">
<path d="M20.4286 8.25H13.3571V1.5C13.3571 0.671719 12.6534 0 11.7857 0H10.2143C9.34656 0 8.64286 0.671719 8.64286 1.5V8.25H1.57143C0.703705 8.25 0 8.92172 0 9.75V11.25C0 12.0783 0.703705 12.75 1.57143 12.75H8.64286V19.5C8.64286 20.3283 9.34656 21 10.2143 21H11.7857C12.6534 21 13.3571 20.3283 13.3571 19.5V12.75H20.4286C21.2963 12.75 22 12.0783 22 11.25V9.75C22 8.92172 21.2963 8.25 20.4286 8.25Z" fill="#77A6FF"/>
</svg>
